# xmcd
# 
# Track frame offsets:
#     180
#     14031
#     27001
#     38392
#     54723
#     66278
#     75277
#     88065
#     101641
#     113631
#     126324
#     138562
#     150962
#     165302
#     176274
#     188372
# 
# Disc length: 2659
# 
# Revision: 4
# Processed by: cddbd v1.5.2PL0 Copyright (c) Steve Scherf et al.
# Submitted via: fre:ac v1.0.31
# 
DISCID=b90a6110
DTITLE=Various Artist - Rautalankahitit
DYEAR=0
DGENRE=Blues
TTITLE0=Klaus and Servants - Apache
TTITLE1=The Defenders - Riders In The Sky
TTITLE2=The Diamonds - Mexican Bodega
TTITLE3=The Dubs - Johnny Guitar
TTITLE4=Klaus and Servants - F.B.I
TTITLE5=Tom Lake - Secret Agent Man
TTITLE6=The Defenders - Perfidia
TTITLE7=A.L.B - Sealed With A Kiss
TTITLE8=Klaus and Servants - Atlantis
TTITLE9=The Defenders - Surrender
TTITLE10=The Diamonds - Love Is Blue
TTITLE11=Charades - I'll Never Fall In Love Again
TTITLE12=A.L.B - Speak Softly Love
TTITLE13=Tom Lake - Emma
TTITLE14=The Defenders - Tiger Shark
TTITLE15=Charades - All Quiet On The Mercey Front
EXTD=
EXTT0=
EXTT1=
EXTT2=
EXTT3=
EXTT4=
EXTT5=
EXTT6=
EXTT7=
EXTT8=
EXTT9=
EXTT10=
EXTT11=
EXTT12=
EXTT13=
EXTT14=
EXTT15=
PLAYORDER=
